<svg width="43" height="42" viewBox="0 0 43 42" fill="none" xmlns="http://www.w3.org/2000/svg">
<path d="M15.6271 17.5178L15.6255 17.5173C14.9405 17.2811 14.4687 16.9378 14.1636 16.5022C13.8578 16.0656 13.6875 15.4905 13.6875 14.735C13.6875 13.1059 14.9836 11.7875 16.53 11.7875H19.155C20.8761 11.7875 22.295 13.2281 22.295 15.05C22.295 15.4913 21.9239 15.8625 21.4825 15.8625C21.0411 15.8625 20.67 15.4913 20.67 15.05C20.67 14.1982 20.0425 13.4125 19.155 13.4125H16.53C15.7871 13.4125 15.3125 14.0728 15.3125 14.735C15.3125 15.0244 15.326 15.3517 15.5143 15.6045C15.6159 15.741 15.7413 15.8218 15.851 15.8755C15.9448 15.9215 16.0519 15.9587 16.1397 15.9891C16.145 15.991 16.1503 15.9928 16.1554 15.9946C16.1555 15.9946 16.1555 15.9947 16.1556 15.9947C16.1556 15.9947 16.1557 15.9947 16.1557 15.9947L20.3713 17.464C21.0564 17.7085 21.5246 18.0556 21.8261 18.4911C22.1286 18.9281 22.295 19.4997 22.295 20.2475L22.295 20.2521C22.3101 21.8925 21.0188 23.195 19.47 23.195H16.845C15.1239 23.195 13.705 21.7544 13.705 19.9325C13.705 19.4911 14.0761 19.12 14.5175 19.12C14.9589 19.12 15.33 19.4911 15.33 19.9325C15.33 20.7843 15.9575 21.57 16.845 21.57H19.47C20.2129 21.57 20.6875 20.9096 20.6875 20.2475C20.6875 19.9581 20.674 19.6308 20.4857 19.3779C20.3841 19.2415 20.2587 19.1606 20.149 19.1069C20.0552 19.061 19.9481 19.0238 19.8603 18.9933C19.855 18.9915 19.8497 18.9896 19.8446 18.9878C19.8445 18.9878 19.8445 18.9878 19.8445 18.9878C19.8444 18.9878 19.8443 18.9878 19.8443 18.9877L15.6271 17.5178Z" fill="#292D32" stroke="#38551F"/>
<path d="M18 24.595C17.5586 24.595 17.1875 24.2239 17.1875 23.7825V22.4875C17.1875 22.0462 17.5586 21.675 18 21.675C18.4414 21.675 18.8125 22.0462 18.8125 22.4875V23.7825C18.8125 24.2371 18.4457 24.595 18 24.595Z" fill="#292D32" stroke="#38551F"/>
<path d="M18 13.395C17.5586 13.395 17.1875 13.0239 17.1875 12.5825V11.2175C17.1875 10.7762 17.5586 10.405 18 10.405C18.4414 10.405 18.8125 10.7762 18.8125 11.2175V12.5825C18.8125 13.0239 18.4414 13.395 18 13.395Z" fill="#292D32" stroke="#38551F"/>
<path d="M17.9825 32.26C9.82364 32.26 3.1875 25.6239 3.1875 17.465C3.1875 9.30619 9.82364 2.67004 17.9825 2.67004C26.1414 2.67004 32.7775 9.30619 32.7775 17.465C32.7775 25.6235 26.1242 32.26 17.9825 32.26ZM17.9825 4.31254C10.7239 4.31254 4.8125 10.2239 4.8125 17.4825C4.8125 24.7421 10.7248 30.635 17.9825 30.635C25.2411 30.635 31.1525 24.7237 31.1525 17.465C31.1525 10.2055 25.2402 4.31254 17.9825 4.31254Z" fill="#292D32" stroke="#38551F"/>
<path d="M22.5389 35.2372L22.5385 35.2367C22.277 34.8662 22.365 34.356 22.7333 34.096C23.1037 33.8346 23.6138 33.9224 23.8739 34.2907C25.3502 36.3837 27.7427 37.6175 30.285 37.6175C34.6211 37.6175 38.135 34.1036 38.135 29.7675C38.135 27.2429 36.9015 24.8522 34.8467 23.3764L34.8467 23.3764L34.8433 23.374C34.4847 23.1209 34.3975 22.6137 34.666 22.2333C34.9188 21.8752 35.4249 21.7877 35.8051 22.0549C38.2809 23.8337 39.76 26.7095 39.76 29.7675C39.76 35.0219 35.5208 39.26 30.285 39.26C27.2101 39.26 24.3176 37.764 22.5389 35.2372Z" fill="#292D32" stroke="#38551F"/>
</svg>
