<svg width="21" height="21" viewBox="0 0 21 21" fill="none" xmlns="http://www.w3.org/2000/svg">
<path d="M18.6375 9.485C18.9787 9.485 19.25 9.21375 19.25 8.8725V8.05875C19.25 4.47125 18.1562 3.3775 14.5687 3.3775H6.43125C2.84375 3.3775 1.75 4.47125 1.75 8.05875V8.47C1.75 8.81125 2.02125 9.0825 2.3625 9.0825C3.15 9.0825 3.78875 9.72125 3.78875 10.5088C3.78875 11.2963 3.15 11.9263 2.3625 11.9263C2.02125 11.9263 1.75 12.1975 1.75 12.5388V12.95C1.75 16.5375 2.84375 17.6313 6.43125 17.6313H14.5687C18.1562 17.6313 19.25 16.5375 19.25 12.95C19.25 12.6088 18.9787 12.3375 18.6375 12.3375C17.85 12.3375 17.2113 11.6988 17.2113 10.9113C17.2113 10.1238 17.85 9.485 18.6375 9.485ZM7.875 7.77C8.35625 7.77 8.75 8.16375 8.75 8.645C8.75 9.12625 8.365 9.52 7.875 9.52C7.39375 9.52 7 9.12625 7 8.645C7 8.16375 7.385 7.77 7.875 7.77ZM13.125 13.895C12.635 13.895 12.2412 13.5013 12.2412 13.02C12.2412 12.5388 12.635 12.145 13.1162 12.145C13.5975 12.145 13.9912 12.5388 13.9912 13.02C13.9912 13.5013 13.615 13.895 13.125 13.895ZM13.9125 8.295L8.02375 14.1838C7.8925 14.315 7.72625 14.3763 7.56 14.3763C7.39375 14.3763 7.2275 14.315 7.09625 14.1838C6.8425 13.93 6.8425 13.51 7.09625 13.2563L12.985 7.3675C13.2388 7.11375 13.6587 7.11375 13.9125 7.3675C14.1662 7.62125 14.1662 8.04125 13.9125 8.295Z" fill="#D2BE00"/>
</svg>
