<svg width="18" height="19" viewBox="0 0 18 19" fill="none" xmlns="http://www.w3.org/2000/svg">
<path d="M9.37518 11.0625H7.50018C7.48711 11.0625 7.47146 11.0573 7.45717 11.043C7.44288 11.0287 7.43768 11.0131 7.43768 11C7.43768 10.9869 7.44288 10.9713 7.45717 10.957C7.47146 10.9427 7.48711 10.9375 7.50018 10.9375H9.37518C11.6163 10.9375 13.4377 9.11614 13.4377 6.875C13.4377 4.63386 11.6163 2.8125 9.37518 2.8125H5.62518C3.38404 2.8125 1.56268 4.63386 1.56268 6.875C1.56268 7.81708 1.89614 8.73073 2.49265 9.45594C2.51575 9.48502 2.51271 9.52449 2.4862 9.54974C2.45619 9.57124 2.41651 9.56624 2.39232 9.53757L2.01018 9.86001L2.39485 9.54059C1.77159 8.79 1.43018 7.84538 1.43018 6.875C1.43018 4.56364 3.30632 2.6875 5.61768 2.6875H9.36768C11.679 2.6875 13.5552 4.56364 13.5552 6.875C13.5552 9.1874 11.6855 11.0625 9.37518 11.0625Z" fill="#292D32" stroke="#38551F"/>
<path d="M8.625 16.3125C6.31364 16.3125 4.4375 14.4364 4.4375 12.125C4.4375 9.81364 6.31364 7.9375 8.625 7.9375H10.5C10.5131 7.9375 10.5287 7.9427 10.543 7.95699C10.5573 7.97128 10.5625 7.98694 10.5625 8C10.5625 8.01306 10.5573 8.02872 10.543 8.04301C10.5287 8.0573 10.5131 8.0625 10.5 8.0625H8.625C6.38386 8.0625 4.5625 9.88386 4.5625 12.125C4.5625 14.3661 6.38386 16.1875 8.625 16.1875H12.375C14.6161 16.1875 16.4375 14.3661 16.4375 12.125C16.4375 11.1829 16.104 10.2693 15.5075 9.54404C15.4835 9.51374 15.4878 9.47218 15.5174 9.44716C15.5304 9.43621 15.5434 9.43277 15.5578 9.43418C15.573 9.43567 15.5911 9.44307 15.6069 9.46137C16.229 10.2114 16.5698 11.155 16.57 12.1242C16.5629 14.4367 14.6859 16.3125 12.375 16.3125H8.625Z" fill="#292D32" stroke="#38551F"/>
</svg>
