<svg width="35" height="63" viewBox="0 0 35 63" fill="none" xmlns="http://www.w3.org/2000/svg">
<path d="M19.0477 0.0249023C9.80022 8.56992 6.85229 15.6842 7.78243 32.9088H19.0477V0.0249023Z" fill="#446A21"/>
<path d="M19 3C10.0993 10.7956 7.26194 17.286 8.1572 33H19V3Z" fill="#72AE34"/>
<path d="M19 8C25.4552 12.5155 27.5087 17.4841 26.8973 33H19V8Z" fill="#38551F"/>
<path d="M19.0476 10.9863C25.1954 14.946 27.1512 19.303 26.5688 32.9089H19.0476V10.9863Z" fill="#446A21"/>
<path d="M10.2858 32.1257H24.0001C30.4763 32.1257 31.1239 34.6155 31.562 37.6534L33.2763 49.3976C33.8286 53.2497 32.381 56.3972 25.7144 56.3972H8.59054C1.90482 56.3972 0.457201 53.2497 1.02863 49.3976L2.74293 37.6534C3.16198 34.6155 3.80958 32.1257 10.2858 32.1257Z" fill="#292D32" stroke="#292D32" stroke-width="1.5" stroke-linecap="round" stroke-linejoin="round"/>
<path d="M33.1619 48.6147H9.5238" stroke="#446A21" stroke-width="1.5" stroke-linecap="round" stroke-linejoin="round"/>
</svg>
