<svg width="24" height="25" viewBox="0 0 24 25" fill="none" xmlns="http://www.w3.org/2000/svg">
<path d="M21 7.75H3C2.86614 7.75 2.75 7.63386 2.75 7.5C2.75 7.36614 2.86614 7.25 3 7.25H21C21.1339 7.25 21.25 7.36614 21.25 7.5C21.25 7.63386 21.1339 7.75 21 7.75Z" fill="#292D32" stroke="white"/>
<path d="M18 12.75H6C5.86614 12.75 5.75 12.6339 5.75 12.5C5.75 12.3661 5.86614 12.25 6 12.25H18C18.1339 12.25 18.25 12.3661 18.25 12.5C18.25 12.6339 18.1339 12.75 18 12.75Z" fill="#292D32" stroke="white"/>
<path d="M14 17.75H10C9.86614 17.75 9.75 17.6339 9.75 17.5C9.75 17.3661 9.86614 17.25 10 17.25H14C14.1339 17.25 14.25 17.3661 14.25 17.5C14.25 17.6339 14.1339 17.75 14 17.75Z" fill="#292D32" stroke="white"/>
</svg>
