<svg width="51" height="48" viewBox="0 0 51 48" fill="none" xmlns="http://www.w3.org/2000/svg">
<path d="M5.73456 29.8321L5.34127 29.9201L5.34376 30.3231C5.36488 33.7424 5.73531 36.012 7.23595 37.3618C7.98654 38.0369 8.97503 38.4412 10.2199 38.6804C11.4617 38.919 12.9969 39 14.875 39H36.125C37.9079 39 39.3809 38.9263 40.5868 38.7143C41.7938 38.5021 42.7683 38.1456 43.5271 37.5544C45.0649 36.3564 45.539 34.3406 45.6347 31.3359L45.6479 30.9224L45.2442 30.8321C42.4103 30.1979 40.3438 27.8026 40.3438 25C40.3438 22.1997 42.4292 19.8026 45.2654 19.1679L45.6562 19.0805V18.68V18C45.6562 16.2055 45.5662 14.737 45.2998 13.5502C45.0317 12.3559 44.5779 11.414 43.8282 10.7084C43.0812 10.0054 42.0897 9.58333 40.8341 9.33366C39.5823 9.08476 38.0299 9 36.125 9H14.875C12.9969 9 11.4617 9.08104 10.2199 9.3196C8.97503 9.55875 7.98654 9.96314 7.23595 10.6382C5.73531 11.988 5.36488 14.2576 5.34376 17.6769L5.34127 18.0799L5.73456 18.1679C8.57084 18.8026 10.6562 21.1997 10.6562 24C10.6562 26.8003 8.57084 29.1974 5.73456 29.8321ZM36.125 41H14.875C10.202 41 7.3257 40.3232 5.59409 38.6934C3.87213 37.0727 3.15625 34.3875 3.15625 30V29C3.15625 28.4843 3.6259 28 4.25 28C6.53715 28 8.46875 26.2243 8.46875 24C8.46875 21.7757 6.53715 20 4.25 20C3.6259 20 3.15625 19.5157 3.15625 19V18C3.15625 13.6125 3.87213 10.9273 5.59409 9.3066C7.3257 7.67685 10.202 7 14.875 7H36.125C40.798 7 43.6743 7.67685 45.4059 9.3066C47.1279 10.9273 47.8438 13.6125 47.8438 18V20C47.8438 20.5157 47.3741 21 46.75 21C44.4628 21 42.5312 22.7757 42.5312 25C42.5312 27.2243 44.4628 29 46.75 29C47.3741 29 47.8438 29.4843 47.8438 30C47.8438 34.3875 47.1279 37.0727 45.4059 38.6934C43.6743 40.3232 40.798 41 36.125 41Z" fill="#292D32" stroke="#38551F"/>
<path d="M31.875 31.26C30.9288 31.26 30.2287 30.5526 30.2287 29.76C30.2287 28.9643 30.9321 28.26 31.8537 28.26C32.7753 28.26 33.4787 28.9643 33.4787 29.76C33.4787 30.5653 32.8078 31.26 31.875 31.26Z" fill="#292D32" stroke="#38551F"/>
<path d="M19.125 21.76C17.935 21.76 16.9787 20.86 16.9787 19.76C16.9787 18.66 17.935 17.76 19.1037 17.76C20.2725 17.76 21.2287 18.66 21.2287 19.76C21.2287 20.86 20.315 21.76 19.125 21.76Z" fill="#292D32"/>
<path d="M18.3387 32.86C17.935 32.86 17.5312 32.72 17.2125 32.42C16.5962 31.84 16.5962 30.88 17.2125 30.3L31.5137 16.84C32.13 16.26 33.15 16.26 33.7662 16.84C34.3825 17.42 34.3825 18.38 33.7662 18.96L19.465 32.42C19.1675 32.72 18.7425 32.86 18.3387 32.86Z" fill="#292D32"/>
</svg>
