<svg width="24" height="24" viewBox="0 0 24 24" fill="none" xmlns="http://www.w3.org/2000/svg">
<path d="M2.96871 5.72761L2.96895 5.72759L5.00895 5.52759L5.01065 5.52742C10.2852 4.99203 15.6391 5.19933 21.0213 5.72759L21.0216 5.72761C21.1528 5.74041 21.2561 5.86227 21.2425 6.00143L21.2424 6.00142L21.2416 6.01163C21.2324 6.13159 21.1286 6.22998 21.0002 6.22998H21H20.9999H20.9998H20.9997H20.9996H20.9995H20.9993H20.9992H20.9991H20.999H20.9989H20.9987H20.9986H20.9985H20.9984H20.9983H20.9981H20.998H20.9979H20.9978H20.9977H20.9975H20.9974H20.9973H20.9972H20.997H20.9969H20.9968H20.9967H20.9965H20.9964H20.9963H20.9962H20.996H20.9959H20.9958H20.9957H20.9955H20.9954H20.9953H20.9952H20.995H20.9949H20.9948H20.9947H20.9945H20.9944H20.9943H20.9942H20.994H20.9939H20.9938H20.9936H20.9935H20.9934H20.9933H20.9931H20.993H20.9929H20.9927H20.9926H20.9925H20.9923H20.9922H20.9921H20.9919H20.9918H20.9917H20.9916H20.9914H20.9913H20.9912H20.991H20.9909H20.9908H20.9906H20.9905H20.9904H20.9902H20.9901H20.99H20.9898H20.9897H20.9896H20.9894H20.9893H20.9891H20.989H20.9889H20.9887H20.9886H20.9885H20.9883H20.9882H20.9881H20.9879H20.9878H20.9876H20.9875H20.9874H20.9872H20.9871H20.987H20.9868H20.9867H20.9865H20.9864H20.9863H20.9861H20.986H20.9858H20.9857H20.9856H20.9854H20.9853H20.9851H20.985H20.9849H20.9847H20.9846H20.9844H20.9843H20.9842H20.984H20.9839H20.9837H20.9836H20.9834H20.9833H20.9832H20.983H20.9829H20.9827H20.9826H20.9824H20.9823H20.9821H20.982H20.9819H20.9817H20.9816H20.9814H20.9813H20.9811H20.981H20.9808H20.9807H20.9806H20.9804H20.9803H20.9801H20.98H20.9798H20.9797H20.9795H20.9794H20.9792H20.9791H20.9789H20.9788H20.9786H20.9785H20.9783H20.9782H20.978H20.9779H20.9777H20.9776H20.9774H20.9773H20.9771H20.977H20.9768H20.9767H20.9765H20.9764H20.9762H20.9761H20.9759H20.9758H20.9756H20.9755H20.9753H20.9752H20.975H20.9749H20.9747H20.9746H20.9744H20.9743H20.9741H20.974H20.9738H20.9737H20.9735H20.9734H20.9732H20.973H20.9729H20.9727H20.9726H20.9724H20.9723H20.9721H20.972H20.9718H20.9717H20.9715H20.9713H20.9712H20.971H20.9709H20.9707H20.9706H20.9704H20.9703H20.9701H20.9699H20.9698H20.9696H20.9695H20.9693H20.9692H20.969H20.9688H20.9687H20.9685H20.9684H20.9682H20.9681H20.9679H20.9677H20.9676H20.9674H20.9673H20.9671H20.967H20.9668H20.9666H20.9665H20.9663H20.9662H20.966H20.9658H20.9657H20.9655H20.9654H20.9652H20.965H20.9649H20.9647H20.9646H20.9644H20.9642H20.9641H20.9639H20.9637H20.9636H20.9634H20.9633H20.9631H20.9629H20.9628H20.9626H20.9625H20.9623H20.9621H20.962H20.9618H20.9616H20.9615H20.9613H20.9612H20.961H20.9608H20.9607H20.9605H20.9603H20.9602H20.96H20.9598H20.9597H20.9595H20.9594H20.9592H20.959H20.9589H20.9587H20.9585H20.9584H20.9582H20.958H20.9579H20.9577H20.9575H20.9574H20.9572H20.957H20.9569H20.9567H20.9566H20.9564H20.9562H20.9561H20.9559H20.9557H20.9556H20.9554H20.9552H20.9551H20.9549H20.9547H20.9546H20.9544H20.9542H20.9541H20.9539H20.9537H20.9536H20.9534H20.9532H20.953H20.9529H20.9527H20.9525H20.9524H20.9522H20.952H20.9519H20.9517H20.9515H20.9514H20.9512H20.951H20.9509H20.9507H20.9505H20.9504H20.9502H20.95H20.9498H20.9497H20.9495H20.9493H20.9492H20.949H20.9488H20.9487H20.9485H20.9483H20.9482H20.948H20.9478H20.9476H20.9475H20.9473H20.9471H20.947H20.9468H20.9466H20.9464H20.9463H20.9461H20.9459H20.9458H20.9456H20.9454H20.9453H20.9451C15.6446 5.69995 10.3371 5.49881 5.07056 6.03244C5.07029 6.03247 5.07002 6.0325 5.06975 6.03252L3.03276 6.23223C3.03258 6.23224 3.03241 6.23226 3.03224 6.23228C2.88208 6.24631 2.76121 6.14225 2.74791 6.00257C2.73393 5.85584 2.83428 5.74073 2.96871 5.72761Z" fill="#292D32" stroke="white"/>
<path d="M8.46787 5.21961C8.46786 5.21961 8.46785 5.21961 8.46785 5.21961L8.46785 5.21957L8.45596 5.21748C8.32183 5.19401 8.23095 5.05809 8.25228 4.93619L8.25286 4.93281L8.47286 3.62281L8.47296 3.6222C8.55635 3.12186 8.63912 2.68383 8.90966 2.34957C9.15237 2.04971 9.6234 1.75 10.6898 1.75H13.3098C14.3759 1.75 14.85 2.05891 15.0949 2.36644C15.3675 2.70887 15.4482 3.1516 15.5263 3.63046L15.5263 3.63046L15.5268 3.63343L15.7468 4.93343L15.7469 4.93415C15.771 5.07527 15.6714 5.19816 15.5556 5.21553L15.5556 5.21543L15.5456 5.21713C15.4045 5.24123 15.2816 5.14164 15.2642 5.02583L15.2643 5.02582L15.2628 5.01657L15.0431 3.71859L15.0408 3.70407C15.0083 3.50231 14.9761 3.30232 14.9287 3.13454C14.8784 2.95627 14.7962 2.75644 14.6261 2.59311C14.4533 2.42715 14.2428 2.34919 14.0336 2.3091C13.8306 2.27019 13.5905 2.26 13.3198 2.26H10.6998C10.4318 2.26 10.1942 2.26819 9.99465 2.30338C9.78949 2.33956 9.57734 2.41193 9.40184 2.57621C9.2287 2.73827 9.14608 2.939 9.09543 3.11616C9.04858 3.28006 9.01535 3.47745 8.98138 3.67921C8.97994 3.68776 8.9785 3.69633 8.97706 3.7049L8.74741 5.00289L8.74736 5.00288L8.74621 5.00996C8.72639 5.13222 8.6203 5.22 8.49977 5.22L8.4773 5.2199L8.46787 5.21961Z" fill="#292D32" stroke="white"/>
<path d="M4.89886 9.15781L4.89888 9.15781L4.89857 9.15353C4.88946 9.02909 4.9904 8.90284 5.13023 8.88921C5.27958 8.88529 5.39059 8.99214 5.40111 9.12493L6.05094 19.1922L6.05092 19.1922L6.0512 19.1961L6.05298 19.2207C6.07909 19.5817 6.10405 19.9269 6.16156 20.2231C6.22142 20.5314 6.32557 20.8412 6.54777 21.1004C6.99613 21.6235 7.75483 21.75 8.7899 21.75H15.2099C16.249 21.75 17.0109 21.6238 17.4595 21.1004C17.6823 20.8405 17.7858 20.5298 17.8443 20.2209C17.9008 19.9224 17.9237 19.5745 17.9476 19.211L17.9488 19.1928L17.9489 19.1922L18.5987 9.12496C18.609 8.99564 18.7263 8.88539 18.8695 8.88919C19.0128 8.90279 19.1106 9.02287 19.1012 9.15439L19.1009 9.15781L18.4511 19.2248C18.4511 19.2254 18.4511 19.2259 18.451 19.2264C18.394 20.0351 18.3293 20.7564 17.9408 21.299C17.5852 21.7958 16.866 22.25 15.2099 22.25H8.7899C7.13376 22.25 6.41464 21.7958 6.05896 21.299C5.67052 20.7563 5.60581 20.035 5.54876 19.2263C5.54873 19.2258 5.5487 19.2253 5.54866 19.2248L4.89886 9.15781Z" fill="#292D32" stroke="white"/>
<path d="M13.6601 16.75H10.3301C10.1962 16.75 10.0801 16.6339 10.0801 16.5C10.0801 16.3661 10.1962 16.25 10.3301 16.25H13.6601C13.7939 16.25 13.9101 16.3661 13.9101 16.5C13.9101 16.6339 13.7939 16.75 13.6601 16.75Z" fill="#292D32" stroke="white"/>
<path d="M14.5 13.25H9.5C9.09 13.25 8.75 12.91 8.75 12.5C8.75 12.09 9.09 11.75 9.5 11.75H14.5C14.91 11.75 15.25 12.09 15.25 12.5C15.25 12.91 14.91 13.25 14.5 13.25Z" fill="#F5FAF3"/>
</svg>
