<svg width="42" height="42" viewBox="0 0 42 42" fill="none" xmlns="http://www.w3.org/2000/svg">
<path d="M25.4371 4.8125V4.3125H24.9371H10.4996C8.25135 4.3125 6.19614 5.53219 5.09389 7.48964L5.09388 7.48963L5.09249 7.49215C4.87738 7.87934 4.37749 8.02214 3.98746 7.80546C3.6005 7.59048 3.45761 7.09093 3.67379 6.70098C5.05625 4.233 7.67246 2.6875 10.4996 2.6875H26.2496C26.691 2.6875 27.0621 3.05864 27.0621 3.5V21C27.0621 23.3839 25.1335 25.3125 22.7496 25.3125H20.9996C20.5583 25.3125 20.1871 24.9414 20.1871 24.5C20.1871 24.0586 20.5583 23.6875 20.9996 23.6875H22.7496C24.2333 23.6875 25.4371 22.4836 25.4371 21V4.8125Z" fill="#292D32" stroke="#38551F"/>
<path d="M9.36246 34.1875H9.73916L9.84306 33.8254C10.3612 32.0197 12.0258 30.6875 14 30.6875C15.9742 30.6875 17.6388 32.0197 18.1569 33.8254L18.2608 34.1875H18.6375H23.38H23.7567L23.8606 33.8254C24.3787 32.0197 26.0433 30.6875 28.0175 30.6875C29.9917 30.6875 31.6562 32.0197 32.1743 33.8254L32.2783 34.1875H32.655H33.25C35.6961 34.1875 37.6875 32.1961 37.6875 29.75V25.8125V25.3125H37.1875H33.25C31.8461 25.3125 30.6875 24.1539 30.6875 22.75V17.5C30.6875 16.0943 31.8305 14.9375 33.25 14.9375H34.1122L33.684 14.1892L31.813 10.9193C31.8127 10.9189 31.8125 10.9185 31.8123 10.9181C31.3362 10.0753 30.4329 9.5625 29.47 9.5625H27.5625H27.0625V10.0625V21C27.0625 23.3839 25.1339 25.3125 22.75 25.3125H21C20.5586 25.3125 20.1875 24.9414 20.1875 24.5C20.1875 24.0586 20.5586 23.6875 21 23.6875H22.75C24.2336 23.6875 25.4375 22.4836 25.4375 21V8.75C25.4375 8.30864 25.8086 7.9375 26.25 7.9375H29.47C31.0225 7.9375 32.4493 8.7683 33.218 10.1176L33.2184 10.1183L36.2097 15.3485C36.2099 15.3489 36.2101 15.3492 36.2103 15.3495C36.3509 15.5992 36.3508 15.9195 36.2097 16.169C36.0757 16.4061 35.8096 16.5625 35.5075 16.5625H33.25C32.7289 16.5625 32.3125 16.9789 32.3125 17.5V22.75C32.3125 23.2711 32.7289 23.6875 33.25 23.6875H38.5C38.9414 23.6875 39.3125 24.0586 39.3125 24.5V29.75C39.3125 33.0964 36.5964 35.8125 33.25 35.8125H31.5C31.0586 35.8125 30.6875 35.4414 30.6875 35C30.6875 33.5164 29.4836 32.3125 28 32.3125C26.5164 32.3125 25.3125 33.5164 25.3125 35C25.3125 35.4414 24.9414 35.8125 24.5 35.8125H17.5C17.0586 35.8125 16.6875 35.4414 16.6875 35C16.6875 33.5164 15.4836 32.3125 14 32.3125C12.5164 32.3125 11.3125 33.5164 11.3125 35C11.3125 35.4414 10.9414 35.8125 10.5 35.8125H8.75C5.40364 35.8125 2.6875 33.0964 2.6875 29.75C2.6875 29.3086 3.05864 28.9375 3.5 28.9375C3.94136 28.9375 4.3125 29.3086 4.3125 29.75C4.3125 32.1961 6.30386 34.1875 8.75 34.1875H9.36246Z" fill="#292D32" stroke="#38551F"/>
<path d="M14 39.3125C11.6161 39.3125 9.6875 37.3839 9.6875 35C9.6875 32.6161 11.6161 30.6875 14 30.6875C16.3839 30.6875 18.3125 32.6161 18.3125 35C18.3125 37.3839 16.3839 39.3125 14 39.3125ZM14 32.3125C12.5164 32.3125 11.3125 33.5164 11.3125 35C11.3125 36.4836 12.5164 37.6875 14 37.6875C15.4836 37.6875 16.6875 36.4836 16.6875 35C16.6875 33.5164 15.4836 32.3125 14 32.3125Z" fill="#292D32" stroke="#38551F"/>
<path d="M28 39.3125C25.6161 39.3125 23.6875 37.3839 23.6875 35C23.6875 32.6161 25.6161 30.6875 28 30.6875C30.3839 30.6875 32.3125 32.6161 32.3125 35C32.3125 37.3839 30.3839 39.3125 28 39.3125ZM28 32.3125C26.5164 32.3125 25.3125 33.5164 25.3125 35C25.3125 36.4836 26.5164 37.6875 28 37.6875C29.4836 37.6875 30.6875 36.4836 30.6875 35C30.6875 33.5164 29.4836 32.3125 28 32.3125Z" fill="#292D32" stroke="#38551F"/>
<path d="M36.2054 15.3407L36.2053 15.3407L36.2106 15.3501L39.2006 20.5956C39.2723 20.7284 39.3125 20.8726 39.3125 21V24.5C39.3125 24.9414 38.9414 25.3125 38.5 25.3125H33.25C31.8461 25.3125 30.6875 24.1539 30.6875 22.75V17.5C30.6875 16.0961 31.8461 14.9375 33.25 14.9375H35.5075C35.8069 14.9375 36.0701 15.091 36.2054 15.3407ZM37.1875 23.6875H37.6875V23.1875V21.35V21.2172L37.6216 21.1019L35.1716 16.8144L35.0276 16.5625H34.7375H33.25C32.7289 16.5625 32.3125 16.9789 32.3125 17.5V22.75C32.3125 23.2711 32.7289 23.6875 33.25 23.6875H37.1875Z" fill="#292D32" stroke="#38551F"/>
<path d="M14 14.8125H3.5C3.05864 14.8125 2.6875 14.4414 2.6875 14C2.6875 13.5586 3.05864 13.1875 3.5 13.1875H14C14.4414 13.1875 14.8125 13.5586 14.8125 14C14.8125 14.4414 14.4414 14.8125 14 14.8125Z" fill="#292D32" stroke="#38551F"/>
<path d="M10.5 20.0625H3.5C3.05864 20.0625 2.6875 19.6914 2.6875 19.25C2.6875 18.8086 3.05864 18.4375 3.5 18.4375H10.5C10.9414 18.4375 11.3125 18.8086 11.3125 19.25C11.3125 19.6914 10.9414 20.0625 10.5 20.0625Z" fill="#292D32" stroke="#38551F"/>
<path d="M7 25.3125H3.5C3.05864 25.3125 2.6875 24.9414 2.6875 24.5C2.6875 24.0586 3.05864 23.6875 3.5 23.6875H7C7.44136 23.6875 7.8125 24.0586 7.8125 24.5C7.8125 24.9414 7.44136 25.3125 7 25.3125Z" fill="#292D32" stroke="#38551F"/>
</svg>
